<svg width="70" height="12" viewBox="0 0 70 12" fill="none" xmlns="http://www.w3.org/2000/svg">
<path d="M3.144 10.864C3.144 11.32 2.628 11.524 2.244 11.524C1.776 11.524 1.332 11.32 1.212 10.828C0.888 9.424 0.972 7.876 0.948 6.436C0.936 5.692 0.936 4.948 0.936 4.204C0.936 3.724 0.9 3.244 0.9 2.764C0.9 1.972 0.912 1.432 1.872 1.432C2.508 1.432 2.868 1.66 2.868 2.332C2.868 3.1 2.856 3.88 2.856 4.648C2.856 4.696 2.868 4.78 2.928 4.78C3.108 4.78 5.244 1.924 6.732 1.924C7.092 1.924 7.632 2.164 7.632 2.584C7.632 2.92 7.212 3.124 6.972 3.28C5.892 3.952 4.968 4.996 4.164 5.968C4.116 6.016 4.092 6.064 4.092 6.136C4.092 6.424 5.952 7.792 6.288 7.996C6.576 8.176 7.02 8.272 7.212 8.572C7.26 8.656 7.296 8.752 7.296 8.848C7.296 9.304 6.756 9.544 6.36 9.544C5.088 9.544 3.252 7.456 2.976 7.456C2.916 7.456 2.892 7.528 2.892 7.576C2.892 8.512 2.892 9.484 3.06 10.396C3.084 10.552 3.144 10.708 3.144 10.864ZM13.1993 1.6C14.3513 1.6 14.6393 3.496 14.7833 4.36C15.0353 5.86 15.1793 7.384 15.5033 8.872C15.5753 9.22 15.7553 9.556 15.7553 9.928C15.7553 10.444 15.2033 10.66 14.7593 10.66C13.1873 10.66 13.9673 8.584 13.1873 8.584H11.9753C11.3633 8.584 11.4233 10.252 10.2473 10.252C9.83925 10.252 9.25125 10.036 9.25125 9.544C9.25125 9.124 9.79125 8.548 9.79125 8.056C9.79125 7.816 9.75525 7.744 9.92325 7.528C10.1993 7.18 10.2473 6.796 10.3793 6.388C10.7153 5.32 11.6753 2.068 12.7433 1.684C12.8873 1.636 13.0433 1.6 13.1993 1.6ZM12.8753 5.056C12.8033 5.068 12.4553 6.184 12.4073 6.34C12.3593 6.472 12.2153 6.868 12.2153 6.988C12.2153 7.108 12.3113 7.192 12.4313 7.192H12.9593C13.0913 7.192 13.1873 7.096 13.1873 6.964C13.1873 6.796 12.9233 5.092 12.8753 5.056ZM20.2206 5.188C20.4126 5.188 20.7126 5.2 20.7126 4.924V2.716C20.7126 2.212 21.2766 2.032 21.6966 2.032C22.2366 2.032 22.6686 2.284 22.6686 2.872V8.788C22.6686 9.388 22.2486 9.664 21.6846 9.664C21.1086 9.664 20.7126 9.4 20.7126 8.788V6.76C20.7126 6.592 20.6286 6.568 20.4846 6.568C20.1846 6.568 19.8846 6.532 19.5846 6.532C19.5006 6.532 19.4166 6.544 19.4166 6.652C19.4166 7.252 19.4406 7.888 19.3446 8.476C19.2726 8.956 18.8046 9.1 18.3726 9.1C17.6766 9.1 17.3766 8.716 17.3766 8.044C17.3766 7.708 17.4366 7.384 17.4606 7.06C17.5446 6.004 17.6406 4.936 17.6406 3.868C17.6406 3.52 17.6046 3.172 17.6046 2.824C17.6046 2.26 18.0726 2.032 18.5766 2.032C19.4886 2.032 19.5846 2.74 19.5846 3.472C19.5846 3.94 19.5606 4.408 19.5606 4.876C19.5606 5.188 20.0046 5.188 20.2206 5.188ZM24.5984 3.532C24.5984 3.148 25.1984 2.812 25.4984 2.656C26.3264 2.212 27.2744 2.008 28.1864 1.804C28.2704 1.78 28.3544 1.78 28.4384 1.78C28.8344 1.78 29.3744 1.996 29.3744 2.464C29.3744 2.776 29.0384 2.992 28.7744 3.076C28.2584 3.244 27.7304 3.316 27.2144 3.484C27.1424 3.508 27.0584 3.532 26.9864 3.556C26.8784 3.592 26.7704 3.748 26.7704 3.868C26.7704 4.132 26.7824 4.408 26.7824 4.672C26.7824 4.792 26.8664 4.888 26.9864 4.888C27.0104 4.888 27.0224 4.876 27.0464 4.876C27.4904 4.78 27.9224 4.66 28.3784 4.66C28.7864 4.66 29.3864 4.828 29.3864 5.332C29.3864 5.692 29.0024 5.944 28.6904 5.992C28.1144 6.076 27.5264 6.16 26.9624 6.304C26.8544 6.328 26.8064 6.376 26.8064 6.496C26.8064 6.592 26.8304 6.676 26.8304 6.772C26.8544 7.228 26.8544 7.672 26.8664 8.128C26.8784 8.512 26.9144 8.908 26.9144 9.292C26.9144 9.808 26.4464 10 25.9904 10C25.6064 10 25.0904 9.844 25.0184 9.388C24.9704 9.076 24.9704 8.74 24.9704 8.428C24.9704 7.876 24.9584 7.324 24.9344 6.772C24.9344 6.712 24.9464 6.664 24.9464 6.604C24.9464 6.364 24.4664 6.352 24.4664 5.896C24.4664 5.476 24.8984 5.476 24.8984 5.176C24.8984 4.84 24.8864 4.504 24.8864 4.168C24.8864 3.916 24.5984 3.796 24.5984 3.532ZM31.1933 8.692C31.1933 8.032 31.2413 7.372 31.2413 6.712V4.108C31.2413 3.604 31.7812 3.412 32.2013 3.412C33.1733 3.412 33.1973 4.036 33.1973 4.816C33.1973 5.536 33.1613 5.836 33.1613 6.556V9.592C33.1613 10.096 32.6213 10.3 32.1893 10.3C31.1093 10.3 31.1933 9.496 31.1933 8.692ZM32.2973 0.603999C33.5333 0.603999 33.8213 2.308 32.2493 2.308C31.0013 2.308 30.7013 0.603999 32.2973 0.603999ZM38.1316 0.916C38.6116 0.916 39.3436 1.336 39.0076 1.888C38.5756 2.608 37.2796 1.984 37.2796 3.652C37.2796 5.68 38.9716 7.588 38.9716 9.532C38.9716 10.984 37.8316 11.596 36.5116 11.596C36.0436 11.596 35.0836 11.56 35.0836 10.9C35.0836 10.348 35.6956 10.192 36.1396 10.192C36.5716 10.192 36.9916 10.288 36.9916 9.688C36.9916 7.864 35.3116 5.8 35.3116 3.652C35.3116 2.332 36.0676 1.504 37.2796 1.096C37.5556 0.999999 37.8316 0.916 38.1316 0.916ZM45.1438 5.344C45.1918 5.344 45.2278 5.272 45.2518 5.236C45.8158 4.252 46.8118 2.212 48.1438 2.212C48.2158 2.212 48.2998 2.224 48.3718 2.236C49.0678 2.368 49.1038 2.884 49.1758 3.472C49.2838 4.372 49.3078 5.272 49.3078 6.172C49.3078 6.808 49.2838 7.444 49.2838 8.068C49.2838 8.872 49.3198 9.472 48.2758 9.472C47.7238 9.472 47.3158 9.208 47.3158 8.62C47.3158 7.66 47.3878 6.7 47.3878 5.752C47.3878 5.656 47.4118 5.344 47.3398 5.284C47.3038 5.284 46.4158 6.928 46.2958 7.144C46.0078 7.636 45.7558 8.092 45.1318 8.176C45.0718 8.188 45.0118 8.188 44.9518 8.188C43.7038 8.188 43.4038 5.704 43.0798 5.512C43.0318 5.524 43.0198 5.596 43.0198 5.632C42.8758 6.436 42.8758 7.3 42.8638 8.116C42.8518 8.644 42.7078 8.968 42.1558 9.076C42.0718 9.088 41.9758 9.1 41.8798 9.1C41.3758 9.1 40.9078 8.884 40.9078 8.308C40.9078 6.88 41.0278 5.416 41.3878 4.036C41.5558 3.376 41.6998 2.62 42.5278 2.572H42.6118C44.0038 2.572 44.5678 4.18 45.0238 5.224C45.0478 5.272 45.0838 5.344 45.1438 5.344ZM51.1151 7.78C51.1151 6.616 51.0551 5.416 51.2831 4.264C51.3551 3.892 51.7631 3.76 52.0991 3.76C52.5431 3.76 53.1191 3.988 53.1191 4.504C53.1191 5.488 53.0111 6.328 53.0111 7.312C53.0111 7.6 52.9271 8.128 53.0831 8.428C53.1191 8.5 53.1431 8.56 53.1431 8.644C53.1431 8.752 53.1071 8.86 53.0711 8.968C52.9151 9.388 52.5671 9.568 52.1231 9.568C51.2951 9.568 51.1031 9.088 51.1031 8.356C51.1031 8.164 51.1151 7.972 51.1151 7.78ZM52.1591 2.776C51.7031 2.776 51.2111 2.524 51.2111 1.996C51.2111 1.48 51.7031 1.228 52.1591 1.228C52.6271 1.228 53.1191 1.48 53.1191 1.996C53.1191 2.524 52.6271 2.776 52.1591 2.776ZM61.606 2.2C61.606 2.68 60.97 2.896 60.562 2.896C60.19 2.896 59.866 2.956 59.422 2.956C59.278 2.956 59.146 3.076 59.146 3.22V8.98C59.146 9.256 59.17 9.532 59.17 9.82C59.17 10.516 58.93 10.852 58.186 10.852C57.118 10.852 57.19 10.132 57.19 9.316C57.19 8.704 57.226 8.716 57.226 8.104V2.968C57.226 2.812 57.106 2.716 56.95 2.716C56.614 2.716 56.722 2.752 56.386 2.752C55.966 2.752 54.682 2.752 54.682 2.104C54.682 1.456 55.246 1.36 55.726 1.36C56.722 1.36 57.274 1.324 58.27 1.324C58.918 1.324 61.606 1.18 61.606 2.2ZM64.4831 10.936C64.1471 10.936 63.7871 10.816 63.5831 10.528C63.1751 9.952 63.2831 5.728 63.2471 4.816C63.2231 4.3 63.1871 3.796 63.1151 3.292C63.1031 3.244 63.1031 3.184 63.1031 3.136C63.1031 2.62 63.6791 2.452 64.0991 2.452C64.5071 2.452 64.9031 2.62 65.0351 3.04C65.2271 3.664 65.2271 5.02 65.2271 5.704C65.2271 5.824 65.3231 5.944 65.4551 5.944C65.8751 5.944 66.3071 5.824 66.7391 5.824C66.8951 5.824 66.9311 5.872 66.9431 5.668C66.9791 5.068 66.9551 4.444 66.9671 3.844C66.9791 3.244 66.9791 2.632 66.9791 2.032C66.9791 1.516 67.5671 1.324 67.9871 1.324C68.6231 1.324 68.9831 1.636 68.9831 2.284C68.9831 2.512 68.9471 2.74 68.9471 2.968C68.9351 3.82 68.8991 4.66 68.8991 5.512C68.8991 5.98 69.6791 5.836 69.6791 6.472C69.6791 6.808 69.4151 7.024 69.1151 7.108C69.0191 7.132 68.9231 7.12 68.9231 7.24C68.9231 7.552 68.9471 7.864 68.9591 8.176C68.9831 8.692 69.1391 9.184 69.1391 9.7C69.1391 10.384 68.8391 10.696 68.1311 10.696C67.0751 10.696 67.1231 9.844 67.0631 9.076C67.0151 8.548 67.0151 8.008 66.9671 7.492C66.9551 7.324 66.8351 7.228 66.6671 7.228C66.3191 7.228 65.9351 7.3 65.5991 7.36C65.4191 7.396 65.2391 7.36 65.2391 7.6C65.2391 8.116 65.2511 8.656 65.2991 9.16C65.3351 9.508 65.4791 9.82 65.4791 10.228C65.4791 10.732 64.9031 10.936 64.4831 10.936Z" fill="white"/>
</svg>
