<svg width="174" height="29" viewBox="0 0 174 29" fill="none" xmlns="http://www.w3.org/2000/svg">
<path d="M12.76 11.92H27.32C33.84 11.92 37.36 14.36 37.36 19.24C37.36 24.72 34.04 28 25.88 28H0.96L6.28 21.12H26.52C28.48 21.12 29.36 20.56 29.36 19.16C29.36 17.8 28.48 17.24 26.52 17.24H11.96C5.08 17.24 1.92 14.16 1.92 9.56C1.92 4.52 5.28 1.24 13.4 1.24H36.64L31.32 8.2H12.76C10.84 8.2 9.92 8.68 9.92 10.04C9.92 11.4 10.84 11.92 12.76 11.92ZM55.2356 3.64L59.5156 11.2C61.8756 15.32 62.9156 17.32 63.8356 19.2C64.7156 17.32 65.7556 15.36 68.1156 11.24L72.3956 3.64C73.3556 1.92 74.7956 0.8 76.9556 0.8C79.0356 0.8 80.8756 2 81.5956 4.48L88.3556 28H80.1156L77.5956 18.68C76.7556 15.64 76.1956 13.48 75.7556 11.32C74.8756 13.2 73.8756 15.24 72.0356 18.72L68.4356 25.44C67.0356 28.08 65.6756 28.44 63.6756 28.44C61.6756 28.44 60.3156 28.08 58.9156 25.44L55.3156 18.68C53.3556 15 52.3956 13.12 51.5556 11.32C51.1556 13.44 50.5556 15.68 49.7556 18.68L47.2356 28H39.1156L46.0356 4.48C46.7556 2 48.6356 0.8 50.7156 0.8C52.8356 0.8 54.2756 1.88 55.2356 3.64ZM99.7872 1.24V28H91.5072V1.24H99.7872ZM107.782 1.24H138.182L132.822 8.2H123.262V28H114.982V8.2H102.422L107.782 1.24ZM173.164 1.24V28H164.924V17.68H149.004V28H140.684V1.24H149.004V10.72H164.924V1.24H173.164Z" fill="white"/>
</svg>
