<svg width="174" height="44" viewBox="0 0 174 44" fill="none" xmlns="http://www.w3.org/2000/svg">
<path d="M9.576 40.456C9.576 42.28 7.512 43.096 5.976 43.096C4.104 43.096 2.328 42.28 1.848 40.312C0.552 34.696 0.888 28.504 0.792 22.744C0.744 19.768 0.744 16.792 0.744 13.816C0.744 11.896 0.6 9.976 0.6 8.056C0.6 4.888 0.648 2.728 4.488 2.728C7.032 2.728 8.472 3.64 8.472 6.328C8.472 9.4 8.424 12.52 8.424 15.592C8.424 15.784 8.472 16.12 8.712 16.12C9.432 16.12 17.976 4.696 23.928 4.696C25.368 4.696 27.528 5.656 27.528 7.336C27.528 8.68 25.848 9.496 24.888 10.12C20.568 12.808 16.872 16.984 13.656 20.872C13.464 21.064 13.368 21.256 13.368 21.544C13.368 22.696 20.808 28.168 22.152 28.984C23.304 29.704 25.08 30.088 25.848 31.288C26.04 31.624 26.184 32.008 26.184 32.392C26.184 34.216 24.024 35.176 22.44 35.176C17.352 35.176 10.008 26.824 8.904 26.824C8.664 26.824 8.568 27.112 8.568 27.304C8.568 31.048 8.568 34.936 9.24 38.584C9.336 39.208 9.576 39.832 9.576 40.456ZM46.917 0.663999C48.837 0.663999 51.765 2.344 50.421 4.552C48.693 7.432 43.509 4.936 43.509 11.608C43.509 19.72 50.277 27.352 50.277 35.128C50.277 40.936 45.717 43.384 40.437 43.384C38.565 43.384 34.725 43.24 34.725 40.6C34.725 38.392 37.173 37.768 38.949 37.768C40.677 37.768 42.357 38.152 42.357 35.752C42.357 28.456 35.637 20.2 35.637 11.608C35.637 6.328 38.661 3.016 43.509 1.384C44.613 0.999997 45.717 0.663999 46.917 0.663999ZM74.9659 18.376C75.1579 18.376 75.3019 18.088 75.3979 17.944C77.6539 14.008 81.6379 5.848 86.9659 5.848C87.2539 5.848 87.5899 5.896 87.8779 5.944C90.6619 6.472 90.8059 8.536 91.0939 10.888C91.5259 14.488 91.6219 18.088 91.6219 21.688C91.6219 24.232 91.5259 26.776 91.5259 29.272C91.5259 32.488 91.6699 34.888 87.4939 34.888C85.2859 34.888 83.6539 33.832 83.6539 31.48C83.6539 27.64 83.9419 23.8 83.9419 20.008C83.9419 19.624 84.0379 18.376 83.7499 18.136C83.6059 18.136 80.0539 24.712 79.5739 25.576C78.4219 27.544 77.4139 29.368 74.9179 29.704C74.6779 29.752 74.4379 29.752 74.1979 29.752C69.2059 29.752 68.0059 19.816 66.7099 19.048C66.5179 19.096 66.4699 19.384 66.4699 19.528C65.8939 22.744 65.8939 26.2 65.8459 29.464C65.7979 31.576 65.2219 32.872 63.0139 33.304C62.6779 33.352 62.2939 33.4 61.9099 33.4C59.8939 33.4 58.0219 32.536 58.0219 30.232C58.0219 24.52 58.5019 18.664 59.9419 13.144C60.6139 10.504 61.1899 7.48 64.5019 7.288H64.8379C70.4059 7.288 72.6619 13.72 74.4859 17.896C74.5819 18.088 74.7259 18.376 74.9659 18.376ZM98.8511 28.12C98.8511 23.464 98.6111 18.664 99.5231 14.056C99.8111 12.568 101.443 12.04 102.787 12.04C104.563 12.04 106.867 12.952 106.867 15.016C106.867 18.952 106.435 22.312 106.435 26.248C106.435 27.4 106.099 29.512 106.723 30.712C106.867 31 106.963 31.24 106.963 31.576C106.963 32.008 106.819 32.44 106.675 32.872C106.051 34.552 104.659 35.272 102.883 35.272C99.5711 35.272 98.8031 33.352 98.8031 30.424C98.8031 29.656 98.8511 28.888 98.8511 28.12ZM103.027 8.104C101.203 8.104 99.2351 7.096 99.2351 4.984C99.2351 2.92 101.203 1.912 103.027 1.912C104.899 1.912 106.867 2.92 106.867 4.984C106.867 7.096 104.899 8.104 103.027 8.104ZM140.815 5.8C140.815 7.72 138.271 8.584 136.639 8.584C135.151 8.584 133.855 8.824 132.079 8.824C131.503 8.824 130.975 9.304 130.975 9.88V32.92C130.975 34.024 131.071 35.128 131.071 36.28C131.071 39.064 130.111 40.408 127.135 40.408C122.863 40.408 123.151 37.528 123.151 34.264C123.151 31.816 123.295 31.864 123.295 29.416V8.872C123.295 8.248 122.815 7.864 122.191 7.864C120.847 7.864 121.279 8.008 119.935 8.008C118.255 8.008 113.119 8.008 113.119 5.416C113.119 2.824 115.375 2.44 117.295 2.44C121.279 2.44 123.487 2.296 127.471 2.296C130.063 2.296 140.815 1.72 140.815 5.8ZM152.323 40.744C150.979 40.744 149.539 40.264 148.723 39.112C147.091 36.808 147.523 19.912 147.379 16.264C147.283 14.2 147.139 12.184 146.851 10.168C146.803 9.976 146.803 9.736 146.803 9.544C146.803 7.48 149.107 6.808 150.787 6.808C152.419 6.808 154.003 7.48 154.531 9.16C155.299 11.656 155.299 17.08 155.299 19.816C155.299 20.296 155.683 20.776 156.211 20.776C157.891 20.776 159.619 20.296 161.347 20.296C161.971 20.296 162.115 20.488 162.163 19.672C162.307 17.272 162.211 14.776 162.259 12.376C162.307 9.976 162.307 7.528 162.307 5.128C162.307 3.064 164.659 2.296 166.339 2.296C168.883 2.296 170.323 3.544 170.323 6.136C170.323 7.048 170.179 7.96 170.179 8.872C170.131 12.28 169.987 15.64 169.987 19.048C169.987 20.92 173.107 20.344 173.107 22.888C173.107 24.232 172.051 25.096 170.851 25.432C170.467 25.528 170.083 25.48 170.083 25.96C170.083 27.208 170.179 28.456 170.227 29.704C170.323 31.768 170.947 33.736 170.947 35.8C170.947 38.536 169.747 39.784 166.915 39.784C162.691 39.784 162.883 36.376 162.643 33.304C162.451 31.192 162.451 29.032 162.259 26.968C162.211 26.296 161.731 25.912 161.059 25.912C159.667 25.912 158.131 26.2 156.787 26.44C156.067 26.584 155.347 26.44 155.347 27.4C155.347 29.464 155.395 31.624 155.587 33.64C155.731 35.032 156.307 36.28 156.307 37.912C156.307 39.928 154.003 40.744 152.323 40.744Z" fill="white"/>
</svg>
